# xmcd CD database file
#
# Track frame offsets:
#	150
#	23451
#	40365
#	75871
#	114586
#	144451
#	165648
#	180443
#	193461
#	209663
#	226148
#	239337
#	263442
#	294390
#	330977
#
# Disc length: 4612 seconds
#
# Revision: 0
# Processed by: cddbd v1.5.2PL0 Copyright (c) Steve Scherf et al.
# Submitted via: CDex 1.51
#
DISCID=c212020f
DTITLE=Illinois Jacquet - Live At Schaffhausen, Switzerland
DYEAR=1978
DGENRE=Jazz
TTITLE0=The King
TTITLE1=Jack The Bear
TTITLE2=Blues From Louisiana
TTITLE3=C Jam Blues
TTITLE4=Satin Doll
TTITLE5=I Can't Get Started
TTITLE6=Cute
TTITLE7=The Very Thought Of You
TTITLE8=Oh, Look At Me Now
TTITLE9=Blue And Sentimental
TTITLE10=In A Sentimental Mood
TTITLE11=George's Blues
TTITLE12=hings Ain't What They Used To Be
TTITLE13=I Wanna Blow Now
TTITLE14=On The Sunny Side Of The Street
EXTD=YEAR: 1978
EXTT0=
EXTT1=
EXTT2=
EXTT3=
EXTT4=
EXTT5=
EXTT6=
EXTT7=
EXTT8=
EXTT9=
EXTT10=
EXTT11=
EXTT12=
EXTT13=
EXTT14=
PLAYORDER=
